<?xml version="1.0" encoding="utf-8"?>
<!-- Generator: Adobe Illustrator 16.0.0, SVG Export Plug-In . SVG Version: 6.00 Build 0)  -->
<!DOCTYPE svg PUBLIC "-//W3C//DTD SVG 1.1//EN" "http://www.w3.org/Graphics/SVG/1.1/DTD/svg11.dtd">
<svg version="1.1" id="Layer_1" xmlns="http://www.w3.org/2000/svg" xmlns:xlink="http://www.w3.org/1999/xlink" x="0px" y="0px"
	 width="177px" height="74px" viewBox="0 0 177 74" enable-background="new 0 0 177 74" xml:space="preserve">
<g>
	<path fill="#630033" d="M167.975,4.451c0,0.578-0.476,1.042-1.047,1.042c-0.576,0-1.039-0.464-1.039-1.042
		c0-0.571,0.463-1.04,1.039-1.04C167.499,3.411,167.975,3.88,167.975,4.451"/>
	<path fill="#630033" d="M165.542,4.451c0,0.578-0.467,1.042-1.041,1.042c-0.578,0-1.045-0.464-1.045-1.042
		c0-0.571,0.467-1.04,1.045-1.04C165.075,3.411,165.542,3.88,165.542,4.451"/>
	<path fill="#630033" d="M165.715,8.105c-4.536,0-8.212,3.507-8.212,7.856c0,2.801,1.533,5.254,3.83,6.635h1.936
		c-1.793-1.245-3.029-3.728-3.029-6.635c0-4.111,2.454-7.435,5.476-7.435c3.021,0,5.467,3.334,5.467,7.447
		c0,3.867-2.165,6.966-4.942,7.319h-8.949c0-6.71-6.274-12.279-13.993-12.279c-5.008,0-9.387,2.375-11.857,5.818V0.282l-2.771,2.079
		v18.774c0,1.191-0.985,2.158-2.167,2.158h-2.734c-1.018,0-1.549,0.062-1.549,0.062c-3.079,0.329-4.283,2.08-4.929,3.307
		l-3.423,7.311c-0.385,0.795-1.071,1.389-1.924,1.664h2.837c0.983,0,1.717-0.613,2.089-1.507l4.195-9.037
		c0.29-0.688,0.878-1.078,1.541-1.078l14.393-0.007l0.01-0.713h-3.367c-1.222,0-2.194-0.972-2.201-2.218v-1.387
		c2.146-2.683,6.614-4.46,11.83-4.46c7.262,0,13.142,3.629,13.277,8.065v0.72c0,0,9.057,0.005,9.176,0.005
		c4.536,0,8.203-3.695,8.203-8.044C173.926,11.627,170.246,8.105,165.715,8.105"/>
	<path fill="#630033" d="M93.712,27.953v19.36v0.055c0,1.941-1.258,3.578-3.004,4.16h11.532c-1.731-0.569-2.938-2.176-2.968-4.092
		V28.991h1.169c4.697,0.345,6.237,2.909,6.237,2.909v-3.947H93.712z"/>
	<path fill="#630033" d="M91.645,27.953H86.27V31.9c0,0,1.346-2.24,5.375-2.816V27.953z"/>
	<path fill="#630033" d="M142.511,50.979c-1.13-0.379-2.043-1.192-2.556-2.244h-0.008l-9.943-21.328l-9.932,21.29
		c-0.507,1.068-1.432,1.903-2.574,2.286h4.477c-0.544-0.298-0.912-0.867-0.912-1.534c0-0.259,0.058-0.508,0.162-0.729l1.827-3.916
		h6.584l-0.491-1.035h-5.613l4.016-8.611l6.421,13.761c0.479,1.188,1.437,2.063,2.741,2.063h0.013L142.511,50.979z"/>
	<path fill="#630033" d="M78.784,51.524c-1.12-0.377-1.995-1.199-2.505-2.248l-9.97-21.387l-9.959,21.347
		c-0.508,1.074-1.432,1.911-2.574,2.294h4.467c-0.542-0.3-0.914-0.869-0.914-1.534c0-0.261,0.061-0.51,0.166-0.734l1.789-3.849h6.77
		l-0.51-1.103h-5.747l4.02-8.609l6.423,13.763c0.481,1.188,1.442,2.065,2.743,2.065c0.007,0,0.011-0.002,0.022-0.002v0.002
		L78.784,51.524z"/>
	<path fill="#630033" d="M26.708,58.363h4.495c7.121-3.455,12.021-10.724,12.021-19.016c0-11.668-9.683-21.123-21.62-21.123
		c-11.94,0-21.624,9.455-21.624,21.123c0,11.613,9.598,21.036,21.463,21.121c1.594,0.056,2.197,1.198,2.71,2.252l0.007-0.002
		l5.295,11.353l3.072-6.563l-2.344-4.999c-0.949-1.764-1.408-3.098-2.709-3.098c-0.011,0-5.989-0.007-5.989-0.007
		C14.049,59.311,6.939,50.52,6.939,39.348c0-11.236,7.18-20.084,14.666-20.084c7.478,0,14.667,8.848,14.667,20.084
		C36.272,47.946,32.04,55.391,26.708,58.363"/>
	<path fill="#630033" d="M174.483,48.738l-2.07-4.428c-0.854-1.63-2.536-3.911-6.613-4.341c5.196-0.183,7.865-2.85,7.865-6.24
		c0-4.068-3.309-6.269-10.211-6.325v1.031c3.046,0,5.709,2.041,5.709,5.277c0,3.238-1.734,5.897-4.883,6.18h-1.57
		c1.129,0.38,2.042,1.192,2.556,2.248l0.001-0.004l3.169,6.796c0.485,1.186,1.441,2.049,2.748,2.049h5.798
		C175.857,50.604,174.993,49.786,174.483,48.738"/>
	<path fill="#630033" d="M161.365,46.891V27.405h-8.579c1.778,0.563,3.068,2.209,3.083,4.178v15.239c0,1.941-1.269,3.575-3.013,4.16
		h11.534C162.653,50.411,161.399,48.803,161.365,46.891"/>
	<rect x="27.887" y="4.168" fill="none" width="121.194" height="66.716"/>
</g>
</svg>
